<?xml version="1.0" encoding="UTF-8" standalone="no"?>
<!-- Created with Inkscape (http://www.inkscape.org/) -->
<svg
   xmlns:dc="http://purl.org/dc/elements/1.1/"
   xmlns:cc="http://creativecommons.org/ns#"
   xmlns:rdf="http://www.w3.org/1999/02/22-rdf-syntax-ns#"
   xmlns:svg="http://www.w3.org/2000/svg"
   xmlns="http://www.w3.org/2000/svg"
   xmlns:sodipodi="http://sodipodi.sourceforge.net/DTD/sodipodi-0.dtd"
   xmlns:inkscape="http://www.inkscape.org/namespaces/inkscape"
   width="1374.9215"
   height="191.54434"
   id="svg2420"
   sodipodi:version="0.32"
   inkscape:version="0.46"
   version="1.0"
   sodipodi:docname="score_2.svg"
   inkscape:output_extension="org.inkscape.output.svg.inkscape">
  <defs
     id="defs2422">
    <inkscape:perspective
       sodipodi:type="inkscape:persp3d"
       inkscape:vp_x="0 : 526.18109 : 1"
       inkscape:vp_y="0 : 1000 : 0"
       inkscape:vp_z="744.09448 : 526.18109 : 1"
       inkscape:persp3d-origin="372.04724 : 350.78739 : 1"
       id="perspective2428" />
  </defs>
  <sodipodi:namedview
     id="base"
     pagecolor="#ffffff"
     bordercolor="#666666"
     borderopacity="1.0"
     gridtolerance="10000"
     guidetolerance="10"
     objecttolerance="10"
     inkscape:pageopacity="0.0"
     inkscape:pageshadow="2"
     inkscape:zoom="0.7"
     inkscape:cx="733.60613"
     inkscape:cy="100.10307"
     inkscape:document-units="px"
     inkscape:current-layer="layer1"
     showgrid="false"
     inkscape:window-width="1440"
     inkscape:window-height="825"
     inkscape:window-x="0"
     inkscape:window-y="25" />
  <metadata
     id="metadata2425">
    <rdf:RDF>
      <cc:Work
         rdf:about="">
        <dc:format>image/svg+xml</dc:format>
        <dc:type
           rdf:resource="http://purl.org/dc/dcmitype/StillImage" />
      </cc:Work>
    </rdf:RDF>
  </metadata>
  <g
     inkscape:label="Layer 1"
     inkscape:groupmode="layer"
     id="layer1"
     transform="translate(-755.04925,-583.37256)">
    <path
       style="fill:none;fill-rule:evenodd;stroke:#000000;stroke-width:3.60121179;stroke-linecap:butt;stroke-linejoin:miter;stroke-miterlimit:4;stroke-dasharray:none;stroke-opacity:1"
       d="M 756.84986,680.18157 L 2049.4216,680.18157 L 2049.4216,680.18157"
       id="path2728" />
    <g
       id="g3575"
       transform="translate(597.25872,-49.136014)">
      <path
         transform="matrix(1.3172068,-0.4668572,-8.6661401e-2,1.0271198,-36.927525,113.94775)"
         d="M 307.08636,732.00653 A 16.162441,16.162441 0 1 1 274.76148,732.00653 A 16.162441,16.162441 0 1 1 307.08636,732.00653 z"
         sodipodi:ry="16.162441"
         sodipodi:rx="16.162441"
         sodipodi:cy="732.00653"
         sodipodi:cx="290.92392"
         id="path3500"
         style="stroke-width:3;stroke-miterlimit:4;stroke-dasharray:none;stroke-dashoffset:0"
         sodipodi:type="arc" />
      <path
         id="path3502"
         d="M 303.04576,720.2091 L 303.04576,634.70746"
         style="fill:none;fill-rule:evenodd;stroke:#000000;stroke-width:2.65584731;stroke-linecap:butt;stroke-linejoin:miter;stroke-miterlimit:4;stroke-dasharray:none;stroke-opacity:1" />
    </g>
    <g
       id="g3579"
       transform="translate(525.83015,-51.993154)">
      <path
         transform="matrix(-1.3190025,0.4617594,9.0633186e-2,-1.026777,794.55895,1350.5761)"
         d="M 307.08636,732.00653 A 16.162441,16.162441 0 1 1 274.76148,732.00653 A 16.162441,16.162441 0 1 1 307.08636,732.00653 z"
         sodipodi:ry="16.162441"
         sodipodi:rx="16.162441"
         sodipodi:cy="732.00653"
         sodipodi:cx="290.92392"
         id="path3504"
         style="stroke-width:3;stroke-miterlimit:4;stroke-dasharray:none;stroke-dashoffset:0"
         sodipodi:type="arc" />
      <path
         id="path3506"
         d="M 456.98521,743.27531 L 456.45623,824.19375"
         style="fill:none;fill-rule:evenodd;stroke:#000000;stroke-width:2.89294839;stroke-linecap:butt;stroke-linejoin:miter;stroke-miterlimit:4;stroke-dasharray:none;stroke-opacity:1" />
    </g>
    <g
       id="g3583"
       transform="translate(577.25872,-69.136014)">
      <path
         transform="matrix(-1.3190025,0.4617594,9.0633186e-2,-1.026777,1097.6203,1368.7778)"
         d="M 307.08636,732.00653 A 16.162441,16.162441 0 1 1 274.76148,732.00653 A 16.162441,16.162441 0 1 1 307.08636,732.00653 z"
         sodipodi:ry="16.162441"
         sodipodi:rx="16.162441"
         sodipodi:cy="732.00653"
         sodipodi:cx="290.92392"
         id="path3508"
         style="stroke-width:3;stroke-miterlimit:4;stroke-dasharray:none;stroke-dashoffset:0"
         sodipodi:type="arc" />
      <path
         id="path3510"
         d="M 760.0466,761.47702 L 759.51762,842.39546"
         style="fill:none;fill-rule:evenodd;stroke:#000000;stroke-width:2.89294839;stroke-linecap:butt;stroke-linejoin:miter;stroke-miterlimit:4;stroke-dasharray:none;stroke-opacity:1" />
      <path
         sodipodi:nodetypes="ccccc"
         id="path3573"
         d="M 760.1888,842.55291 L 760.1888,841.98146 C 766.07556,826.86076 770.65792,825.45725 780.37187,820.81936 C 789.92888,814.23683 780.05768,795.20902 773.22213,787.12516 L 773.22213,787.12516"
         style="fill:none;fill-rule:evenodd;stroke:#000000;stroke-width:3;stroke-linecap:butt;stroke-linejoin:miter;stroke-miterlimit:4;stroke-dasharray:none;stroke-opacity:1" />
    </g>
    <g
       id="g3588"
       transform="translate(958.60424,-48.374254)">
      <path
         transform="matrix(1.3172068,-0.4668572,-8.6661401e-2,1.0271198,-36.927525,113.94775)"
         d="M 307.08636,732.00653 A 16.162441,16.162441 0 1 1 274.76148,732.00653 A 16.162441,16.162441 0 1 1 307.08636,732.00653 z"
         sodipodi:ry="16.162441"
         sodipodi:rx="16.162441"
         sodipodi:cy="732.00653"
         sodipodi:cx="290.92392"
         id="path3590"
         style="stroke-width:3;stroke-miterlimit:4;stroke-dasharray:none;stroke-dashoffset:0"
         sodipodi:type="arc" />
      <path
         id="path3592"
         d="M 303.04576,720.2091 L 303.04576,634.70746"
         style="fill:none;fill-rule:evenodd;stroke:#000000;stroke-width:2.65584731;stroke-linecap:butt;stroke-linejoin:miter;stroke-miterlimit:4;stroke-dasharray:none;stroke-opacity:1" />
    </g>
    <path
       style="fill:none;fill-rule:evenodd;stroke:#000000;stroke-width:1px;stroke-linecap:butt;stroke-linejoin:miter;stroke-opacity:1"
       d="M 1228.0056,709.47599 L 1253.2594,719.57752 L 1228.0056,728.66889"
       id="path3594" />
    <path
       id="path3596"
       d="M 1227.283,710.50968 L 1253.2596,718.57258 L 1228.8081,729.64189"
       style="fill:none;fill-rule:evenodd;stroke:#000000;stroke-width:3;stroke-linecap:butt;stroke-linejoin:miter;stroke-miterlimit:4;stroke-dasharray:none;stroke-opacity:1" />
    <text
       xml:space="preserve"
       style="font-size:48px;font-style:normal;font-weight:normal;fill:#000000;fill-opacity:1;stroke:none;stroke-width:1px;stroke-linecap:butt;stroke-linejoin:miter;stroke-opacity:1;font-family:Bitstream Vera Sans"
       x="2075.8301"
       y="692.42761"
       id="text3664"><tspan
         sodipodi:role="line"
         id="tspan3666"
         x="2075.8301"
         y="692.42761">x2</tspan></text>
    <g
       id="g2414"
       transform="translate(646.66743,-50.910497)">
      <path
         transform="matrix(-1.3190025,0.4617594,9.0633186e-2,-1.026777,794.55895,1350.5761)"
         d="M 307.08636,732.00653 A 16.162441,16.162441 0 1 1 274.76148,732.00653 A 16.162441,16.162441 0 1 1 307.08636,732.00653 z"
         sodipodi:ry="16.162441"
         sodipodi:rx="16.162441"
         sodipodi:cy="732.00653"
         sodipodi:cx="290.92392"
         id="path2416"
         style="stroke-width:3;stroke-miterlimit:4;stroke-dasharray:none;stroke-dashoffset:0"
         sodipodi:type="arc" />
      <path
         id="path2418"
         d="M 456.98521,743.27531 L 456.45623,824.19375"
         style="fill:none;fill-rule:evenodd;stroke:#000000;stroke-width:2.89294839;stroke-linecap:butt;stroke-linejoin:miter;stroke-miterlimit:4;stroke-dasharray:none;stroke-opacity:1" />
    </g>
    <path
       id="path2420"
       d="M 1109.6094,635.6348 L 1135.586,643.6977 L 1111.1345,654.76701"
       style="fill:none;fill-rule:evenodd;stroke:#000000;stroke-width:3;stroke-linecap:butt;stroke-linejoin:miter;stroke-miterlimit:4;stroke-dasharray:none;stroke-opacity:1" />
    <g
       id="g2422"
       transform="translate(1187.062,-50.006979)">
      <path
         transform="matrix(1.3172068,-0.4668572,-8.6661401e-2,1.0271198,-36.927525,113.94775)"
         d="M 307.08636,732.00653 A 16.162441,16.162441 0 1 1 274.76148,732.00653 A 16.162441,16.162441 0 1 1 307.08636,732.00653 z"
         sodipodi:ry="16.162441"
         sodipodi:rx="16.162441"
         sodipodi:cy="732.00653"
         sodipodi:cx="290.92392"
         id="path2424"
         style="stroke-width:3;stroke-miterlimit:4;stroke-dasharray:none;stroke-dashoffset:0"
         sodipodi:type="arc" />
      <path
         id="path2426"
         d="M 303.04576,720.2091 L 303.04576,634.70746"
         style="fill:none;fill-rule:evenodd;stroke:#000000;stroke-width:2.65584731;stroke-linecap:butt;stroke-linejoin:miter;stroke-miterlimit:4;stroke-dasharray:none;stroke-opacity:1" />
    </g>
    <g
       id="g2428"
       transform="translate(1107.0619,-52.864119)">
      <path
         transform="matrix(-1.3190025,0.4617594,9.0633186e-2,-1.026777,794.55895,1350.5761)"
         d="M 307.08636,732.00653 A 16.162441,16.162441 0 1 1 274.76148,732.00653 A 16.162441,16.162441 0 1 1 307.08636,732.00653 z"
         sodipodi:ry="16.162441"
         sodipodi:rx="16.162441"
         sodipodi:cy="732.00653"
         sodipodi:cx="290.92392"
         id="path2430"
         style="stroke-width:3;stroke-miterlimit:4;stroke-dasharray:none;stroke-dashoffset:0"
         sodipodi:type="arc" />
      <path
         id="path2432"
         d="M 456.98521,743.27531 L 456.45623,824.19375"
         style="fill:none;fill-rule:evenodd;stroke:#000000;stroke-width:2.89294839;stroke-linecap:butt;stroke-linejoin:miter;stroke-miterlimit:4;stroke-dasharray:none;stroke-opacity:1" />
    </g>
    <g
       id="g2434"
       transform="translate(1147.0619,-70.006979)">
      <path
         transform="matrix(-1.3190025,0.4617594,9.0633186e-2,-1.026777,1097.6203,1368.7778)"
         d="M 307.08636,732.00653 A 16.162441,16.162441 0 1 1 274.76148,732.00653 A 16.162441,16.162441 0 1 1 307.08636,732.00653 z"
         sodipodi:ry="16.162441"
         sodipodi:rx="16.162441"
         sodipodi:cy="732.00653"
         sodipodi:cx="290.92392"
         id="path2436"
         style="stroke-width:3;stroke-miterlimit:4;stroke-dasharray:none;stroke-dashoffset:0"
         sodipodi:type="arc" />
      <path
         id="path2438"
         d="M 760.0466,761.47702 L 759.51762,842.39546"
         style="fill:none;fill-rule:evenodd;stroke:#000000;stroke-width:2.89294839;stroke-linecap:butt;stroke-linejoin:miter;stroke-miterlimit:4;stroke-dasharray:none;stroke-opacity:1" />
      <path
         sodipodi:nodetypes="ccccc"
         id="path2440"
         d="M 760.1888,842.55291 L 760.1888,841.98146 C 766.07556,826.86076 770.65792,825.45725 780.37187,820.81936 C 789.92888,814.23683 780.05768,795.20902 773.22213,787.12516 L 773.22213,787.12516"
         style="fill:none;fill-rule:evenodd;stroke:#000000;stroke-width:3;stroke-linecap:butt;stroke-linejoin:miter;stroke-miterlimit:4;stroke-dasharray:none;stroke-opacity:1" />
    </g>
    <g
       id="g2442"
       transform="translate(1528.4074,-49.245219)">
      <path
         transform="matrix(1.3172068,-0.4668572,-8.6661401e-2,1.0271198,-36.927525,113.94775)"
         d="M 307.08636,732.00653 A 16.162441,16.162441 0 1 1 274.76148,732.00653 A 16.162441,16.162441 0 1 1 307.08636,732.00653 z"
         sodipodi:ry="16.162441"
         sodipodi:rx="16.162441"
         sodipodi:cy="732.00653"
         sodipodi:cx="290.92392"
         id="path2444"
         style="stroke-width:3;stroke-miterlimit:4;stroke-dasharray:none;stroke-dashoffset:0"
         sodipodi:type="arc" />
      <path
         id="path2446"
         d="M 303.04576,720.2091 L 303.04576,634.70746"
         style="fill:none;fill-rule:evenodd;stroke:#000000;stroke-width:2.65584731;stroke-linecap:butt;stroke-linejoin:miter;stroke-miterlimit:4;stroke-dasharray:none;stroke-opacity:1" />
    </g>
    <path
       style="fill:none;fill-rule:evenodd;stroke:#000000;stroke-width:1px;stroke-linecap:butt;stroke-linejoin:miter;stroke-opacity:1"
       d="M 1797.8087,708.60502 L 1823.0625,718.70655 L 1797.8087,727.79792"
       id="path2448" />
    <path
       id="path2450"
       d="M 1797.0861,709.63871 L 1823.0627,717.70161 L 1798.6112,728.77092"
       style="fill:none;fill-rule:evenodd;stroke:#000000;stroke-width:3;stroke-linecap:butt;stroke-linejoin:miter;stroke-miterlimit:4;stroke-dasharray:none;stroke-opacity:1" />
    <g
       id="g2452"
       transform="translate(1222.1849,-51.781469)">
      <path
         transform="matrix(-1.3190025,0.4617594,9.0633186e-2,-1.026777,794.55895,1350.5761)"
         d="M 307.08636,732.00653 A 16.162441,16.162441 0 1 1 274.76148,732.00653 A 16.162441,16.162441 0 1 1 307.08636,732.00653 z"
         sodipodi:ry="16.162441"
         sodipodi:rx="16.162441"
         sodipodi:cy="732.00653"
         sodipodi:cx="290.92392"
         id="path2454"
         style="stroke-width:3;stroke-miterlimit:4;stroke-dasharray:none;stroke-dashoffset:0"
         sodipodi:type="arc" />
      <path
         id="path2456"
         d="M 456.98521,743.27531 L 456.45623,824.19375"
         style="fill:none;fill-rule:evenodd;stroke:#000000;stroke-width:2.89294839;stroke-linecap:butt;stroke-linejoin:miter;stroke-miterlimit:4;stroke-dasharray:none;stroke-opacity:1" />
    </g>
    <path
       id="path2458"
       d="M 1685.1268,634.76383 L 1711.1034,642.82673 L 1686.6519,653.89604"
       style="fill:none;fill-rule:evenodd;stroke:#000000;stroke-width:3;stroke-linecap:butt;stroke-linejoin:miter;stroke-miterlimit:4;stroke-dasharray:none;stroke-opacity:1" />
  </g>
</svg>
